mtllib materials.mtl
v 0.2788022 -0.3290792 -0.2820901
v 0.3436975 -0.2369168 0.3022268
v 0.311882 0.3505987 0.2130934
v 0.2469867 0.2584363 -0.3712234
v -0.311882 -0.3505987 -0.2130934
v -0.3436975 0.2369168 -0.3022268
v -0.2788022 0.3290792 0.2820901
v -0.2469867 -0.2584363 0.3712234
vn 0.9925973 0.03616174 -0.1159434
vn -0.9925973 -0.03616174 0.1159434
vn 0.05346344 -0.9872726 0.1497815
vn -0.05346344 0.9872726 -0.1497815
vn -0.1090514 -0.1548714 -0.9818975
vn 0.1090514 0.1548714 0.9818975
vt 0.01437326 0.02507131
vt 0.07084091 0.006290485
vt 0.08962174 0.06275814
vt 0.03315408 0.08153896
vt -0.01437326 0.0250713
vt -0.03315408 0.08153896
vt -0.08962173 0.06275813
vt -0.07084091 0.006290484
vt 0.006648815 0.00546724
vt -0.00252719 -0.05333
vt 0.05627005 -0.06250601
vt 0.06544606 -0.003708768
vt -0.006648813 0.005467241
vt -0.06544606 -0.003708767
vt -0.05627004 -0.06250601
vt 0.002527192 -0.05333
vt -0.02291334 0.01785097
vt -0.07678639 0.04312959
vt -0.102065 -0.01074345
vt -0.04819196 -0.03602208
vt 0.02291334 0.01785097
vt 0.04819197 -0.03602209
vt 0.102065 -0.01074346
vt 0.07678639 0.0431296
o group938616313
g mesh938616313
usemtl mat21
f 4/4/1 3/3/1 2/2/1 1/1/1
f 8/8/2 7/7/2 6/6/2 5/5/2
f 2/12/3 8/11/3 5/10/3 1/9/3
f 6/16/4 7/15/4 3/14/4 4/13/4
f 5/20/5 6/19/5 4/18/5 1/17/5
f 3/24/6 7/23/6 8/22/6 2/21/6
