mtllib materials.mtl
v 0.4030232 -0.287977 -0.1360096
v 0.4314567 -0.2786429 -0.06181788
v 0.4227734 -0.1993935 -0.06846046
v 0.3943401 -0.2087275 -0.1426522
v -0.2569917 -0.3396723 -0.02229255
v -0.2568681 -0.2596999 -0.02439022
v -0.2557833 -0.2576042 0.05557501
v -0.2559069 -0.3375766 0.05767256
v 0.3766045 -0.02201176 -0.1355626
v 0.4087587 -0.02404952 -0.06233716
v 0.401997 0.05549562 -0.05715442
v 0.3698429 0.05753338 -0.1303798
v -0.2784969 -0.07567406 0.002951503
v -0.2762302 0.003747582 0.01228315
v -0.2713139 -0.005708694 0.09157008
v -0.2735806 -0.08513021 0.08223838
v 0.3595606 0.2047921 -0.1238857
v 0.3944519 0.215686 -0.05272442
v 0.3859871 0.294837 -0.06069094
v 0.3510958 0.2839432 -0.1318522
v -0.2884731 0.1639093 0.04817414
v -0.2877614 0.2437944 0.04394811
v -0.2796787 0.2479272 0.1234314
v -0.2803905 0.1680421 0.1276574
vn 0.9283845 0.07114892 -0.3647467
vn -0.9999069 0.001899364 0.01351439
vn 0.08969126 -0.9956589 0.02487787
vn -0.08252063 0.996276 -0.02499137
vn -0.176688 -0.02553502 -0.9839357
vn 0.1776355 0.0255284 0.9837652
vn 0.09302523 -0.9916681 0.08911087
vn -0.1613328 -0.09997186 -0.9818236
vn 0.1620788 0.1000436 0.9816933
vn -0.1007648 0.9911792 -0.08608331
vn 0.9117629 0.1034015 -0.3974879
vn -0.9977077 0.02091271 0.06435867
vn 0.06281322 -0.9905366 -0.1220315
vn -0.05564145 0.9910131 0.1216436
vn -0.2235801 0.1200305 -0.9672666
vn 0.224518 -0.1200324 0.9670491
vn 0.06928591 -0.9959013 -0.05813904
vn -0.2102354 0.04575884 -0.9765794
vn 0.2109762 -0.04568482 0.976423
vn -0.07688462 0.9951442 0.06145457
vn 0.893636 0.0506885 -0.4459209
vn -0.9948434 0.01417614 0.1004281
vn 0.08190797 -0.9956927 0.04344255
vn -0.07476901 0.9962211 -0.04419603
vn -0.2621596 -0.04865091 -0.9637975
vn 0.2630886 0.04862861 0.9635454
vn 0.0908758 -0.9900959 0.1070128
vn -0.2473977 -0.123187 -0.9610512
vn 0.2481302 0.1232464 0.9608547
vn -0.09832583 0.9897771 -0.1033112
vt 0.06035968 0.08740515
vt 0.06820701 0.08896062
vt 0.06665155 0.09680794
vt 0.05880422 0.09525248
vt -0.09812707 0.02869608
vt -0.1024717 0.03541352
vt -0.1091892 0.03106887
vt -0.1048445 0.02435143
vt 0.05974653 -0.03267138
vt 0.06737529 -0.03508011
vt 0.07784782 0.03414795
vt -0.06922308 0.03308146
vt -0.0673777 -0.0350363
vt -0.05975094 -0.03262121
vt -0.0661835 0.07155719
vt -0.0903021 0.009711778
vt -0.0831156 0.006196924
vt 0.0837198 0.004957322
vt 0.09090652 0.008471753
vt 0.06623361 0.07315075
vt 0.08179828 0.03485341
vt 0.07382124 0.03424773
vt 0.06532653 -0.03238618
vt -0.07823147 0.005689871
vt -0.053206 0.06802736
vt -0.06067784 0.07088597
vt 0.06012569 0.07233317
vt 0.05265376 0.06947482
vt 0.07825778 0.004308627
vt -0.07378806 0.03478001
vt -0.08176525 0.03538371
vt -0.07363658 -0.03336257
vt 0.04586215 0.1187704
vt 0.05376177 0.1200338
vt 0.05249841 0.1279334
vt 0.0445988 0.1266701
vt -0.1089219 0.05931704
vt -0.1136299 0.06578509
vt -0.1200979 0.06107716
vt -0.11539 0.05460912
vt 0.04481778 -0.03356669
vt 0.05240383 -0.03610675
vt 0.06406976 0.03293023
vt -0.05534668 0.03178566
vt -0.05232719 -0.03629016
vt -0.04474321 -0.03374394
vt -0.1016893 0.07949795
vt -0.1242435 0.01706503
vt -0.1169708 0.01373219
vt 0.1175383 0.01248819
vt 0.1248112 0.01582058
vt 0.1017745 0.08110023
vt 0.07031599 0.03250062
vt 0.06232881 0.03204781
vt 0.05255967 -0.03441121
vt -0.1129506 0.01406916
vt -0.08941273 0.07698341
vt -0.09695036 0.07966376
vt 0.09643025 0.08113088
vt 0.08889252 0.07845081
vt 0.1129415 0.01269485
vt -0.06228625 0.03288791
vt -0.0702735 0.03333934
vt -0.06083507 -0.03523938
vt 0.0290742 0.146292
vt 0.03639809 0.1495108
vt 0.03317928 0.1568347
vt 0.02585539 0.1536159
vt -0.1195338 0.08483022
vt -0.1227098 0.09217276
vt -0.1300524 0.08899674
vt -0.1268764 0.0816542
vt 0.07021467 -0.03526928
vt 0.07803823 -0.03694016
vt 0.08186685 0.03297078
vt -0.07329527 0.03075516
vt -0.07796454 -0.03722743
vt -0.07014199 -0.03555184
vt -0.1137633 0.08274785
vt -0.138587 0.02118208
vt -0.1314411 0.01758533
vt 0.1320626 0.01634858
vt 0.1392086 0.01994518
vt 0.1137957 0.08433705
vt 0.08898114 0.03389709
vt 0.08109979 0.03252434
vt 0.07907587 -0.03461835
vt -0.1259031 0.01645808
vt -0.1005796 0.07867512
vt -0.1080377 0.08156945
vt 0.1074799 0.08300725
vt 0.1000218 0.08011299
vt 0.125939 0.01507069
vt -0.08095552 0.03341641
vt -0.08883765 0.03478463
vt -0.08735938 -0.03442476
o group179452727
g mesh179452727
usemtl mat21
f 4/4/1 3/3/1 2/2/1 1/1/1
f 8/8/2 7/7/2 6/6/2 5/5/2
f 2/11/3 8/10/3 5/9/3
f 6/14/4 7/13/4 4/12/4
f 5/17/5 6/16/5 4/15/5
f 3/20/6 7/19/6 8/18/6
f 5/23/7 1/22/7 2/21/7
f 4/26/8 1/25/8 5/24/8
f 8/29/9 2/28/9 3/27/9
f 7/32/10 3/31/10 4/30/10
o group1490121622
g mesh1490121622
usemtl mat21
f 12/36/11 11/35/11 10/34/11 9/33/11
f 16/40/12 15/39/12 14/38/12 13/37/12
f 10/43/13 16/42/13 13/41/13
f 14/46/14 15/45/14 12/44/14
f 13/49/15 14/48/15 12/47/15
f 11/52/16 15/51/16 16/50/16
f 13/55/17 9/54/17 10/53/17
f 12/58/18 9/57/18 13/56/18
f 16/61/19 10/60/19 11/59/19
f 15/64/20 11/63/20 12/62/20
o group1591450544
g mesh1591450544
usemtl mat21
f 20/68/21 19/67/21 18/66/21 17/65/21
f 24/72/22 23/71/22 22/70/22 21/69/22
f 18/75/23 24/74/23 21/73/23
f 22/78/24 23/77/24 20/76/24
f 21/81/25 22/80/25 20/79/25
f 19/84/26 23/83/26 24/82/26
f 21/87/27 17/86/27 18/85/27
f 20/90/28 17/89/28 21/88/28
f 24/93/29 18/92/29 19/91/29
f 23/96/30 19/95/30 20/94/30
