mtllib materials.mtl
v -0.06715812 0.01291764 0.03991239
v -0.06581012 0.03336853 0.02884255
v 0.5927253 0.08584666 0.06315447
v -0.06273832 0.04551309 0.00920406
v 0.5903834 0.09920394 0.04421516
v -0.05876579 0.04609728 -0.01374099
v 0.5888057 0.1012872 0.0210685
v -0.05495699 0.03496444 -0.03384446
v 0.5884149 0.09153831 -8.34018E-05
v -0.05233247 0.01509768 -0.04571968
v 0.589316 0.07256943 -0.01357292
v -0.05159547 -0.008179724 -0.04618467
v 0.591267 0.04946321 -0.01578553
v -0.05294348 -0.02863061 -0.03511484
v 0.5937457 0.02841109 -0.006128386
v -0.05601528 -0.04077524 -0.01547635
v 0.5960876 0.01505387 0.01281093
v -0.0599878 -0.04135936 0.007468686
v 0.5976652 0.01297051 0.03595759
v -0.0637966 -0.03022653 0.02757217
v 0.598056 0.02271944 0.05710948
v -0.06642112 -0.01035976 0.03944738
v 0.597155 0.04168832 0.070599
v 0.5952038 0.06479454 0.0728116
vn -0.08368036 0.4786167 0.8740273
vn -0.09760454 0.8532057 0.5123606
vn -0.08547729 0.9962841 0.01056677
vn -0.05069223 0.8695912 -0.4911634
vn -0.002917868 0.5127844 -0.8585125
vn 0.04531021 0.02138549 -0.9987441
vn 0.08140112 -0.4785908 -0.8742567
vn 0.09529107 -0.8532369 -0.5127442
vn 0.08280101 -0.996505 -0.01103328
vn 0.04769065 -0.8699651 0.4908017
vn -5.155461E-05 -0.5130754 0.8583435
vn -0.04520912 -0.02138305 0.9987487
vn -0.9848426 -0.0277614 -0.1712146
vn 0.9941813 0.08966872 -0.05969233
vn -0.07715073 0.4081874 0.9096322
vn -0.04165147 -0.09872351 0.9942429
vn -0.09468806 0.8079809 0.5815505
vn -0.08662409 0.9916861 0.09515826
vn -0.05489533 0.907196 -0.4171113
vn -0.008163961 0.5792624 -0.8151003
vn 0.04097577 0.09866983 -0.9942763
vn 0.07958288 -0.4078702 -0.909565
vn 0.09730659 -0.8076211 -0.5816181
vn 0.08901704 -0.99146 -0.09530554
vn 0.05687219 -0.9071085 0.4170369
vn 0.009956072 -0.5791965 0.8151272
vt 0.04044246 0.02889685
vt 0.04235142 0.03023169
vt 0.01020631 0.08804771
vt 0.01343896 0.01442014
vt 0.01531005 0.01580759
vt -0.01665672 0.07312154
vt -0.0185398 -0.0004922386
vt -0.01650425 0.0006402555
vt -0.04114669 0.0608799
vt -0.04934311 -0.0004491182
vt -0.0470738 7.641975E-05
vt -0.05684716 0.06400732
vt -0.06573702 0.0165186
vt -0.06342672 0.01622118
vt -0.05450801 0.08010349
vt -0.06102195 0.03177134
vt -0.05890741 0.03079426
vt -0.0352878 0.09093828
vt -0.042012 0.03071744
vt -0.0401028 0.02938294
vt -0.009156206 0.08652589
vt -0.01531464 0.01580056
vt -0.01344379 0.01441278
vt 0.01787572 0.07195094
vt 0.01618988 6.678074E-05
vt 0.01822486 -0.001066716
vt 0.04263012 0.06030992
vt 0.04682647 -0.001007434
vt 0.04909559 -0.001533822
vt 0.05846462 0.06426487
vt 0.06358002 0.01501928
vt 0.06589027 0.01531718
vt 0.05593298 0.0812033
vt 0.05936743 0.02979884
vt 0.06148198 0.03077589
vt 0.03432137 0.0915469
vt -0.06310472 0.02847252
vt -0.06081623 0.02803803
vt -0.05861709 0.02880599
vt -0.05709657 0.03057064
vt -0.05666208 0.03285913
vt -0.05743005 0.03505827
vt -0.05919469 0.03657879
vt -0.06148318 0.03701328
vt -0.06368232 0.03624532
vt -0.06520284 0.03448067
vt -0.06563734 0.03219218
vt -0.06486937 0.02999304
vt 0.06292544 0.0376365
vt 0.06338032 0.03992102
vt 0.06263199 0.04212692
vt 0.06088098 0.04366311
vt 0.05859645 0.04411799
vt 0.05639055 0.04336967
vt 0.05485435 0.04161864
vt 0.05439948 0.03933412
vt 0.05514781 0.03712822
vt 0.05689882 0.03559202
vt 0.05918335 0.03513714
vt 0.06138925 0.03588547
vt 0.01467216 0.08968116
vt 0.0125654 0.0886874
vt 0.04426711 0.03020689
vt 0.06356534 0.02955598
vt 0.04030179 0.09187593
vt 0.0381184 0.09106425
vt -0.01211532 0.07566043
vt -0.01424245 0.07471107
vt 0.01843731 0.01719556
vt -0.03715829 0.06197687
vt -0.03938152 0.06128173
vt -0.01283862 0.001263082
vt -0.05498677 0.06218549
vt -0.05730568 0.06196498
vt -0.04464822 -0.001877423
vt -0.05582248 0.07738693
vt -0.05812267 0.07775447
vt -0.0642847 0.01337506
vt -0.03846064 0.09016351
vt -0.0406441 0.090975
vt -0.0625212 0.03029646
vt -0.01285904 0.08803354
vt -0.01496562 0.08902766
vt -0.04512922 0.03188445
vt 0.01410051 0.07440946
vt 0.01197329 0.07535863
vt -0.01951105 0.01851019
vt 0.03940503 0.06141448
vt 0.03718163 0.06210909
vt 0.01132804 0.00191654
vt 0.05735137 0.06251546
vt 0.05503243 0.06273573
vt 0.04287459 -0.002186489
vt 0.05800238 0.07857574
vt 0.05570213 0.07820854
vt 0.06274585 0.01212048
o group317463487
g mesh317463487
usemtl mat21
f 3/3/1 2/2/1 1/1/1
f 5/6/2 4/5/2 2/4/2
f 7/9/3 6/8/3 4/7/3
f 9/12/4 8/11/4 6/10/4
f 11/15/5 10/14/5 8/13/5
f 13/18/6 12/17/6 10/16/6
f 15/21/7 14/20/7 12/19/7
f 17/24/8 16/23/8 14/22/8
f 19/27/9 18/26/9 16/25/9
f 21/30/10 20/29/10 18/28/10
f 23/33/11 22/32/11 20/31/11
f 23/36/12 1/35/12 22/34/12
f 1/48/13 2/47/13 4/46/13 6/45/13 8/44/13 10/43/13 12/42/13 14/41/13 16/40/13 18/39/13 20/38/13 22/37/13
f 23/60/14 21/59/14 19/58/14 17/57/14 15/56/14 13/55/14 11/54/14 9/53/14 7/52/14 5/51/14 3/50/14 24/49/14
f 1/63/15 24/62/15 3/61/15
f 23/66/16 24/65/16 1/64/16
f 2/69/17 3/68/17 5/67/17
f 4/72/18 5/71/18 7/70/18
f 6/75/19 7/74/19 9/73/19
f 8/78/20 9/77/20 11/76/20
f 10/81/21 11/80/21 13/79/21
f 12/84/22 13/83/22 15/82/22
f 14/87/23 15/86/23 17/85/23
f 16/90/24 17/89/24 19/88/24
f 18/93/25 19/92/25 21/91/25
f 20/96/26 21/95/26 23/94/26
